<svg width="91" height="104" viewBox="0 0 91 104" fill="none" xmlns="http://www.w3.org/2000/svg">
<rect x="23.4366" y="14.6478" width="67.3803" height="58.5915" fill="#4F40BF"/>
<path d="M57.1268 104L23.4366 73.2394L90.8169 73.2394L57.1268 104Z" fill="#4F40BF"/>
<path d="M11.7183 14.6478L11.7183 -6.00815e-05L82.8169 -6.00815e-05C87.2351 -6.00815e-05 90.8169 3.58166 90.8169 7.99994V14.6478L11.7183 14.6478Z" fill="#4F40BF"/>
<path d="M2.67029e-05 15.3802C2.67029e-05 13.3604 0.303129 11.3605 0.892031 9.49444C1.48093 7.62842 2.3441 5.93291 3.43224 4.50471C4.52039 3.07652 5.8122 1.94362 7.23393 1.17069C8.65566 0.397758 10.1795 -6.48499e-05 11.7183 -6.48499e-05C13.2572 -6.48499e-05 14.781 0.397758 16.2027 1.17069C17.6245 1.94362 18.9163 3.07652 20.0044 4.50472C21.0926 5.93291 21.9557 7.62842 22.5446 9.49444C23.1335 11.3605 23.4366 13.3605 23.4366 15.3802L11.7183 15.3802H2.67029e-05Z" fill="#2E256F"/>
<path d="M41.6617 42.4366V31.1326H44.0557V42.4366H41.6617ZM37.6657 31.3846V29.3146H48.1057V31.3846H37.6657ZM52.1267 42.5986C51.4067 42.5986 50.7587 42.4906 50.1827 42.2746C49.6067 42.0466 49.1027 41.7166 48.6707 41.2846C48.2507 40.8526 47.9267 40.3306 47.6987 39.7186C47.4827 39.1066 47.3747 38.4166 47.3747 37.6486C47.3747 36.6646 47.5607 35.8006 47.9327 35.0566C48.3167 34.3126 48.8627 33.7306 49.5707 33.3106C50.2787 32.8906 51.1307 32.6806 52.1267 32.6806C52.8347 32.6806 53.4767 32.7946 54.0527 33.0226C54.6287 33.2506 55.1207 33.5806 55.5287 34.0126C55.9487 34.4446 56.2727 34.9666 56.5007 35.5786C56.7287 36.1786 56.8427 36.8686 56.8427 37.6486C56.8427 38.6206 56.6507 39.4786 56.2667 40.2226C55.8947 40.9666 55.3547 41.5486 54.6467 41.9686C53.9507 42.3886 53.1107 42.5986 52.1267 42.5986ZM52.1087 40.7446C52.6007 40.7446 53.0327 40.6306 53.4047 40.4026C53.7767 40.1626 54.0647 39.8146 54.2687 39.3586C54.4727 38.8906 54.5747 38.3206 54.5747 37.6486C54.5747 37.1446 54.5147 36.7006 54.3947 36.3166C54.2867 35.9206 54.1247 35.5906 53.9087 35.3266C53.6927 35.0626 53.4347 34.8646 53.1347 34.7326C52.8347 34.6006 52.4987 34.5346 52.1267 34.5346C51.6347 34.5346 51.1967 34.6546 50.8127 34.8946C50.4407 35.1226 50.1527 35.4706 49.9487 35.9386C49.7447 36.3946 49.6427 36.9646 49.6427 37.6486C49.6427 38.1526 49.6967 38.6026 49.8047 38.9986C49.9247 39.3826 50.0927 39.7066 50.3087 39.9706C50.5247 40.2226 50.7827 40.4146 51.0827 40.5466C51.3947 40.6786 51.7367 40.7446 52.1087 40.7446ZM58.7077 45.4426V32.8606H60.8497L60.9397 34.6066H61.0657C61.2697 34.0306 61.6477 33.5686 62.1997 33.2206C62.7517 32.8606 63.4057 32.6806 64.1617 32.6806C64.7497 32.6806 65.2837 32.7946 65.7637 33.0226C66.2437 33.2506 66.6577 33.5806 67.0057 34.0126C67.3537 34.4326 67.6177 34.9486 67.7977 35.5606C67.9897 36.1726 68.0857 36.8686 68.0857 37.6486C68.0857 38.6806 67.9177 39.5686 67.5817 40.3126C67.2577 41.0566 66.8017 41.6266 66.2137 42.0226C65.6257 42.4186 64.9417 42.6166 64.1617 42.6166C63.6577 42.6166 63.1957 42.5386 62.7757 42.3826C62.3557 42.2146 61.9957 41.9866 61.6957 41.6986C61.4077 41.4106 61.1977 41.0806 61.0657 40.7086H60.9577V45.4426H58.7077ZM63.3157 40.7806C63.8437 40.7806 64.2937 40.6546 64.6657 40.4026C65.0377 40.1506 65.3137 39.7906 65.4937 39.3226C65.6857 38.8426 65.7817 38.2846 65.7817 37.6486C65.7817 37.0006 65.6917 36.4426 65.5117 35.9746C65.3317 35.5066 65.0617 35.1466 64.7017 34.8946C64.3417 34.6426 63.8977 34.5166 63.3697 34.5166C62.8417 34.5166 62.3977 34.6366 62.0377 34.8766C61.6777 35.1046 61.4077 35.4226 61.2277 35.8306C61.0477 36.2266 60.9577 36.6646 60.9577 37.1446V38.1706C60.9577 38.6626 61.0537 39.1066 61.2457 39.5026C61.4377 39.8866 61.7077 40.1986 62.0557 40.4386C62.4037 40.6666 62.8237 40.7806 63.3157 40.7806ZM76.3428 42.4366V33.3826H73.1388V31.6726H73.6608C74.5248 31.6726 75.1908 31.4686 75.6588 31.0606C76.1268 30.6526 76.3908 30.1186 76.4508 29.4586H78.5928V42.4366H76.3428Z" fill="white"/>
<path d="M57.1267 72.9587L64.6704 77.5117L62.6685 68.9305L69.3333 63.1568L60.5568 62.4122L57.1267 54.3192L53.6967 62.4122L44.9202 63.1568L51.585 68.9305L49.5831 77.5117L57.1267 72.9587Z" fill="white"/>
</svg>
