<svg width="27" height="27" viewBox="0 0 27 27" fill="none" xmlns="http://www.w3.org/2000/svg">
<circle cx="13.2373" cy="13.2373" r="13.2373" fill="#4F40BF"/>
<g clip-path="url(#clip0_4033_667)">
<path d="M20.7326 9.87166L13.501 17.1434L11.3066 14.9442L18.5491 7.67488C18.6202 7.60315 18.7048 7.54614 18.798 7.50711C18.8911 7.46808 18.9911 7.44779 19.0921 7.44739C19.1931 7.447 19.2932 7.46652 19.3867 7.50483C19.4801 7.54313 19.5651 7.59948 19.6368 7.67065L19.641 7.67488L20.7326 8.77312C20.8775 8.91921 20.9588 9.11663 20.9588 9.32239C20.9588 9.52815 20.8775 9.72557 20.7326 9.87166Z" fill="white"/>
<path d="M13.499 17.1462L11.853 18.8012C11.7093 18.946 11.514 19.0278 11.31 19.0286C11.106 19.0294 10.9101 18.9491 10.7653 18.8055L10.7611 18.8012L5.74191 13.7531C5.59696 13.6071 5.51562 13.4097 5.51562 13.204C5.51562 12.9983 5.59696 12.8009 5.74191 12.6549L6.83382 11.5566C6.97727 11.4122 7.17214 11.3306 7.37569 11.3296C7.57925 11.3286 7.77488 11.4084 7.91969 11.5515L7.92452 11.5566L13.499 17.1462Z" fill="white"/>
</g>
<defs>
<clipPath id="clip0_4033_667">
<rect width="15.4436" height="15.4436" fill="white" transform="translate(5.51562 5.5155)"/>
</clipPath>
</defs>
</svg>
