<svg width="62" height="71" viewBox="0 0 62 71" fill="none" xmlns="http://www.w3.org/2000/svg">
<rect x="16" y="10" width="46" height="40" fill="#4F40BF"/>
<path d="M39 71L16 50L62 50L39 71Z" fill="#4F40BF"/>
<path d="M8 10V0L54 0C58.4183 0 62 3.58172 62 8V10L8 10Z" fill="#4F40BF"/>
<path d="M0 10.5C0 9.12112 0.206926 7.75574 0.608964 6.48182C1.011 5.2079 1.60028 4.05039 2.34315 3.07538C3.08601 2.10036 3.96793 1.32694 4.93853 0.799265C5.90914 0.271591 6.94943 0 8 0C9.05058 0 10.0909 0.271591 11.0615 0.799265C12.0321 1.32694 12.914 2.10036 13.6569 3.07538C14.3997 4.05039 14.989 5.20791 15.391 6.48182C15.7931 7.75574 16 9.12112 16 10.5L8 10.5H0Z" fill="#2E256F"/>
<path d="M28.7134 29V21.464H30.3094V29H28.7134ZM26.0494 21.632V20.252H33.0094V21.632H26.0494ZM35.6901 29.108C35.2101 29.108 34.7781 29.036 34.3941 28.892C34.0101 28.74 33.6741 28.52 33.3861 28.232C33.1061 27.944 32.8901 27.596 32.7381 27.188C32.5941 26.78 32.5221 26.32 32.5221 25.808C32.5221 25.152 32.6461 24.576 32.8941 24.08C33.1501 23.584 33.5141 23.196 33.9861 22.916C34.4581 22.636 35.0261 22.496 35.6901 22.496C36.1621 22.496 36.5901 22.572 36.9741 22.724C37.3581 22.876 37.6861 23.096 37.9581 23.384C38.2381 23.672 38.4541 24.02 38.6061 24.428C38.7581 24.828 38.8341 25.288 38.8341 25.808C38.8341 26.456 38.7061 27.028 38.4501 27.524C38.2021 28.02 37.8421 28.408 37.3701 28.688C36.9061 28.968 36.3461 29.108 35.6901 29.108ZM35.6781 27.872C36.0061 27.872 36.2941 27.796 36.5421 27.644C36.7901 27.484 36.9821 27.252 37.1181 26.948C37.2541 26.636 37.3221 26.256 37.3221 25.808C37.3221 25.472 37.2821 25.176 37.2021 24.92C37.1301 24.656 37.0221 24.436 36.8781 24.26C36.7341 24.084 36.5621 23.952 36.3621 23.864C36.1621 23.776 35.9381 23.732 35.6901 23.732C35.3621 23.732 35.0701 23.812 34.8141 23.972C34.5661 24.124 34.3741 24.356 34.2381 24.668C34.1021 24.972 34.0341 25.352 34.0341 25.808C34.0341 26.144 34.0701 26.444 34.1421 26.708C34.2221 26.964 34.3341 27.18 34.4781 27.356C34.6221 27.524 34.7941 27.652 34.9941 27.74C35.2021 27.828 35.4301 27.872 35.6781 27.872ZM40.0774 31.004V22.616H41.5054L41.5654 23.78H41.6494C41.7854 23.396 42.0374 23.088 42.4054 22.856C42.7734 22.616 43.2094 22.496 43.7134 22.496C44.1054 22.496 44.4614 22.572 44.7814 22.724C45.1014 22.876 45.3774 23.096 45.6094 23.384C45.8414 23.664 46.0174 24.008 46.1374 24.416C46.2654 24.824 46.3294 25.288 46.3294 25.808C46.3294 26.496 46.2174 27.088 45.9934 27.584C45.7774 28.08 45.4734 28.46 45.0814 28.724C44.6894 28.988 44.2334 29.12 43.7134 29.12C43.3774 29.12 43.0694 29.068 42.7894 28.964C42.5094 28.852 42.2694 28.7 42.0694 28.508C41.8774 28.316 41.7374 28.096 41.6494 27.848H41.5774V31.004H40.0774ZM43.1494 27.896C43.5014 27.896 43.8014 27.812 44.0494 27.644C44.2974 27.476 44.4814 27.236 44.6014 26.924C44.7294 26.604 44.7934 26.232 44.7934 25.808C44.7934 25.376 44.7334 25.004 44.6134 24.692C44.4934 24.38 44.3134 24.14 44.0734 23.972C43.8334 23.804 43.5374 23.72 43.1854 23.72C42.8334 23.72 42.5374 23.8 42.2974 23.96C42.0574 24.112 41.8774 24.324 41.7574 24.596C41.6374 24.86 41.5774 25.152 41.5774 25.472V26.156C41.5774 26.484 41.6414 26.78 41.7694 27.044C41.8974 27.3 42.0774 27.508 42.3094 27.668C42.5414 27.82 42.8214 27.896 43.1494 27.896ZM51.8342 29V22.964H49.6982V21.824H50.0462C50.6222 21.824 51.0662 21.688 51.3782 21.416C51.6902 21.144 51.8662 20.788 51.9062 20.348H53.3342V29H51.8342Z" fill="white"/>
<path d="M39 49.8083L44.15 52.9166L42.7833 47.0583L47.3333 43.1166L41.3417 42.6083L39 37.0833L36.6583 42.6083L30.6667 43.1166L35.2167 47.0583L33.85 52.9166L39 49.8083Z" fill="white"/>
</svg>
